<?xml version="1.0" standalone="no"?>
<!DOCTYPE svg PUBLIC "-//W3C//DTD SVG 20010904//EN"
 "http://www.w3.org/TR/2001/REC-SVG-20010904/DTD/svg10.dtd">
<svg version="1.0" xmlns="http://www.w3.org/2000/svg"
 width="1024.000000pt" height="1024.000000pt" viewBox="0 0 1024.000000 1024.000000"
 preserveAspectRatio="xMidYMid meet">

<g transform="translate(0.000000,1024.000000) scale(0.100000,-0.100000)"
fill="#000000" stroke="none">
<path d="M4835 9044 c-523 -39 -999 -170 -1465 -404 -621 -311 -1178 -819
-1553 -1415 -110 -176 -280 -517 -347 -698 -135 -367 -216 -760 -241 -1171
-72 -1184 466 -2413 1391 -3178 281 -231 604 -433 920 -572 796 -351 1690
-426 2535 -215 842 212 1624 733 2148 1434 165 220 266 383 381 614 276 552
406 1105 406 1725 0 348 -33 614 -116 948 -166 665 -505 1272 -984 1762 -231
236 -421 393 -670 550 -509 323 -1133 541 -1735 606 -101 11 -578 21 -670 14z
m133 -1086 l-3 -673 -720 -3 c-396 -1 -726 0 -733 3 -8 3 14 57 72 173 171
343 338 585 541 786 237 235 536 381 788 385 l57 1 -2 -672z m458 657 c207
-36 385 -120 571 -271 260 -211 491 -524 680 -922 35 -73 63 -135 63 -137 0
-3 -327 -4 -727 -2 l-728 2 -3 673 -2 672 29 0 c15 0 68 -7 117 -15z m-1537
-165 c-94 -104 -213 -253 -285 -357 -134 -191 -323 -527 -414 -735 l-33 -77
-437 -1 c-241 0 -445 2 -454 6 -12 5 -3 21 46 83 316 391 661 686 1063 909
158 87 300 150 535 235 41 15 37 1 -21 -63z m2520 25 c290 -101 683 -323 946
-534 156 -125 310 -268 422 -393 123 -137 213 -246 213 -259 0 -5 -193 -8
-446 -7 -385 3 -448 5 -455 18 -5 8 -42 85 -83 170 -183 383 -434 760 -648
973 -37 37 -64 67 -59 67 5 0 54 -16 110 -35z m-3369 -1518 c0 -2 -11 -36 -25
-76 -35 -104 -99 -370 -134 -556 -49 -266 -80 -541 -99 -885 l-7 -125 -605 0
-605 0 3 60 c11 218 64 530 128 752 64 227 134 405 245 631 l100 202 499 0
c275 0 500 -1 500 -3z m3852 -118 c73 -227 147 -547 187 -809 36 -238 52 -438
58 -725 13 -636 -56 -1200 -215 -1762 l-48 -168 -1747 -3 -1747 -2 -11 27 c-6
16 -30 98 -54 184 -84 295 -144 612 -182 964 -25 230 -25 953 0 1210 40 403
120 797 239 1168 l12 39 1735 -5 1736 -4 37 -114z m1395 -64 c224 -436 360
-911 389 -1362 l7 -103 -610 0 -610 0 -7 153 c-19 413 -76 796 -177 1193 -26
105 -57 214 -67 242 -11 28 -17 53 -14 57 3 3 228 4 501 3 l495 -3 93 -180z
m-5503 -1936 c20 -436 128 -1054 242 -1385 13 -39 24 -74 24 -77 0 -4 -227 -7
-504 -7 l-504 0 -85 168 c-206 406 -334 838 -382 1289 -8 76 -15 144 -15 151
0 9 128 12 609 12 l608 0 7 -151z m5896 106 c0 -64 -36 -333 -60 -450 -67
-327 -159 -591 -321 -922 l-99 -203 -505 0 c-278 0 -505 2 -505 4 0 3 11 40
25 83 112 357 216 963 241 1411 l7 122 609 0 608 0 0 -45z m-5490 -1982 c59
-147 205 -437 281 -558 132 -210 285 -407 407 -522 36 -35 62 -63 56 -63 -5 0
-47 14 -94 30 -461 164 -843 411 -1221 789 -148 148 -369 403 -369 425 0 3
202 6 448 6 l448 0 44 -107z m1780 -593 l0 -700 -51 0 c-76 0 -241 37 -333 74
-401 161 -775 595 -1051 1217 -25 56 -45 103 -45 105 0 2 333 4 740 4 l740 0
0 -700z m1754 623 c-171 -376 -368 -675 -594 -904 -252 -254 -492 -384 -776
-418 -50 -6 -64 -4 -69 7 -3 7 -5 324 -5 703 l0 689 740 0 739 0 -35 -77z
m1276 71 c0 -16 -212 -266 -325 -383 -392 -405 -819 -688 -1258 -832 -65 -22
-122 -39 -128 -39 -6 0 37 50 95 111 269 280 487 627 694 1102 l21 47 450 0
c248 0 451 -3 451 -6z"/>
<path d="M4054 6627 l-29 -25 0 -1441 0 -1440 23 -23 c22 -22 28 -23 265 -26
133 -2 252 -1 264 3 12 3 32 15 43 27 20 21 20 33 20 595 l0 573 209 0 209 0
20 -32 c17 -28 122 -222 325 -598 63 -118 226 -419 264 -488 22 -39 44 -67 59
-73 14 -5 142 -9 285 -9 l260 0 24 25 c14 13 25 34 25 46 0 13 -41 95 -92 183
-89 158 -372 663 -470 841 -28 50 -54 94 -59 100 -19 19 -6 31 75 73 326 170
498 515 457 917 -42 421 -314 686 -791 771 -81 15 -188 18 -726 21 l-631 4
-29 -24z m1207 -451 c183 -33 314 -145 355 -306 26 -101 16 -238 -23 -322 -53
-113 -118 -168 -246 -211 -56 -19 -91 -21 -384 -25 l-323 -4 0 441 0 441 273
0 c183 -1 297 -5 348 -14z"/>
</g>
</svg>
